<?xml version="1.0" encoding="UTF-8" standalone="no"?>
<!-- Created with Inkscape (http://www.inkscape.org/) -->

<svg
   version="1.1"
   id="svg1"
   width="104"
   height="150"
   viewBox="0 0 104 150"
   sodipodi:docname="favicon.svg"
   inkscape:version="1.4 (86a8ad7, 2024-10-11)"
   inkscape:export-filename="favicon.png"
   inkscape:export-xdpi="96"
   inkscape:export-ydpi="96"
   xmlns:inkscape="http://www.inkscape.org/namespaces/inkscape"
   xmlns:sodipodi="http://sodipodi.sourceforge.net/DTD/sodipodi-0.dtd"
   xmlns:xlink="http://www.w3.org/1999/xlink"
   xmlns="http://www.w3.org/2000/svg"
   xmlns:svg="http://www.w3.org/2000/svg">
  <defs
     id="defs1">
    <linearGradient
       inkscape:collect="always"
       xlink:href="#linearGradient134"
       id="linearGradient107"
       gradientUnits="userSpaceOnUse"
       x1="-0.021427101"
       y1="19.859091"
       x2="35.460949"
       y2="19.859091" />
    <linearGradient
       id="linearGradient134"
       inkscape:collect="always">
      <stop
         style="stop-color:#031164;stop-opacity:1;"
         offset="0.01609195"
         id="stop148" />
      <stop
         style="stop-color:#072af3;stop-opacity:1;"
         offset="0.16551724"
         id="stop134" />
      <stop
         style="stop-color:#f30bcc;stop-opacity:0.99305558;"
         offset="0.6804598"
         id="stop136" />
      <stop
         style="stop-color:#03fe57;stop-opacity:1;"
         offset="0.74712646"
         id="stop137" />
      <stop
         style="stop-color:#fdac18;stop-opacity:1;"
         offset="0.88275856"
         id="stop138" />
      <stop
         style="stop-color:#fcfc15;stop-opacity:1;"
         offset="1"
         id="stop135" />
    </linearGradient>
    <linearGradient
       inkscape:collect="always"
       xlink:href="#linearGradient134"
       id="linearGradient103"
       gradientUnits="userSpaceOnUse"
       gradientTransform="matrix(-1.0595531,0,0,-1.0107842,28.03435,23.949908)"
       x1="-0.021427101"
       y1="19.859091"
       x2="35.460949"
       y2="19.859091" />
    <linearGradient
       inkscape:collect="always"
       xlink:href="#linearGradient134"
       id="linearGradient104"
       gradientUnits="userSpaceOnUse"
       gradientTransform="matrix(1.682097,0,0,0.71108848,2.1652274,6.5811934)"
       x1="-0.021427101"
       y1="19.859091"
       x2="35.460949"
       y2="19.859091" />
    <linearGradient
       inkscape:collect="always"
       xlink:href="#linearGradient202"
       id="linearGradient105"
       gradientUnits="userSpaceOnUse"
       gradientTransform="matrix(1.682097,0,0,0.5848108,2.1652274,7.6390655)"
       x1="5.8515177"
       y1="19.859091"
       x2="35.460949"
       y2="19.859091" />
    <linearGradient
       id="linearGradient202"
       inkscape:collect="always">
      <stop
         style="stop-color:#072af3;stop-opacity:1;"
         offset="0"
         id="stop198" />
      <stop
         style="stop-color:#f30bcc;stop-opacity:0.99305558;"
         offset="0.61707991"
         id="stop199" />
      <stop
         style="stop-color:#03fe57;stop-opacity:1;"
         offset="0.69696975"
         id="stop200" />
      <stop
         style="stop-color:#fdac18;stop-opacity:1;"
         offset="0.85950404"
         id="stop201" />
      <stop
         style="stop-color:#fcfc15;stop-opacity:1;"
         offset="1"
         id="stop202" />
    </linearGradient>
    <linearGradient
       inkscape:collect="always"
       xlink:href="#linearGradient134"
       id="linearGradient106"
       gradientUnits="userSpaceOnUse"
       gradientTransform="matrix(-1.0595531,0,0,-1.0107842,26.856024,59.461129)"
       x1="-0.021427101"
       y1="19.859091"
       x2="35.460949"
       y2="19.859091" />
  </defs>
  <sodipodi:namedview
     id="namedview1"
     pagecolor="#ffffff"
     bordercolor="#cccccc"
     borderopacity="1"
     inkscape:showpageshadow="0"
     inkscape:pageopacity="1"
     inkscape:pagecheckerboard="0"
     inkscape:deskcolor="#d1d1d1"
     showgrid="false"
     inkscape:zoom="1.0795164"
     inkscape:cx="28.716564"
     inkscape:cy="86.149691"
     inkscape:window-width="1024"
     inkscape:window-height="701"
     inkscape:window-x="-9"
     inkscape:window-y="-9"
     inkscape:window-maximized="1"
     inkscape:current-layer="g1" />
  <g
     inkscape:groupmode="layer"
     inkscape:label="Image"
     id="g1">
    <g
       id="g98"
       style="fill:url(#linearGradient107);stroke-width:0.913538"
       transform="matrix(4.1637895,0,0,4.1108689,-3.6480445,-13.122264)">
      <path
         style="fill:url(#linearGradient103);fill-opacity:1;stroke:#ff0000;stroke-width:0.14019;stroke-linecap:round;stroke-linejoin:round;stroke-dasharray:none;stroke-opacity:1;paint-order:fill markers stroke"
         d="m 22.025696,8.7939946 c 0,0 4.139687,0.146922 3.729336,-2.976774 -0.219372,-1.669899 -1.096867,-2.686364 -3.729336,-2.541151 -2.49499,0.137619 -2.639948,1.548661 -3.180903,4.065836 -0.760629,3.5393244 -1.352104,6.0363164 -1.352104,6.0363164 l -2.00204,0.06993 -0.87442,-3.8931654 c 0,0 2.789649,-0.387024 2.907199,-2.799248 0.109731,-2.25073 -2.109758,-3.409216 -5.154227,-3.156599 C 8.8501269,3.8911536 9.5368429,13.784178 9.5368429,13.784178 l -1.612502,0.107578 -1.474097,-4.7347504 c 0,0 2.932338,0.112794 2.742149,-2.758965 -0.153154,-2.312238 -2.799566,-2.723176 -5.374631,-2.03292 C 0.55982687,5.2384246 4.0319169,23.44796 4.0319169,23.44796 10.222331,21.944239 16.103627,19.696236 22.458047,18.799407 Z"
         id="path93"
         sodipodi:nodetypes="cssscccsscccssccc" />
      <path
         style="fill:url(#linearGradient104);fill-opacity:1;fill-rule:evenodd;stroke:#ff0000;stroke-width:0.14019;stroke-linecap:round;stroke-linejoin:round;stroke-dasharray:none;stroke-opacity:1;paint-order:fill markers stroke"
         d="m 5.7491141,14.181857 c 1.7380266,-0.152885 1.335118,-3.709763 0.1644647,-3.288961 -1.2468223,0.448182 0.7888877,1.295917 -0.1644647,3.288961 z"
         id="path95"
         sodipodi:nodetypes="csc"
         inkscape:transform-center-x="2.6333369"
         inkscape:transform-center-y="-1.2622705" />
      <path
         style="fill:url(#linearGradient105);fill-opacity:1;fill-rule:evenodd;stroke:#ff0000;stroke-width:0.14019;stroke-linecap:round;stroke-linejoin:round;stroke-dasharray:none;stroke-opacity:1;paint-order:fill markers stroke"
         d="m 4.2392794,11.188454 c 1.825045,-0.231671 0.3557052,2.752446 1.1089749,5.863025 0.7032043,2.903837 2.7017379,3.819665 0.6413442,4.412013 C 3.3832443,22.212799 5.108197,20.365286 4.6341387,17.185944 4.1260765,13.778551 1.8467164,11.492164 4.2392794,11.188454 Z"
         id="path96"
         sodipodi:nodetypes="sssss" />
      <path
         style="fill:url(#linearGradient106);fill-opacity:1;stroke:#ff0000;stroke-width:0.14019;stroke-linecap:round;stroke-linejoin:round;stroke-dasharray:none;stroke-opacity:1;paint-order:fill markers stroke"
         d="m 4.7038259,34.0791 c 0,0 -4.13968803,-0.146923 -3.72933703,2.976774 0.21937203,1.669899 1.09686703,2.686364 3.72933703,2.54115 2.49499,-0.137618 2.639947,-1.54866 3.180902,-4.065836 0.760629,-3.539322 1.352104,-6.036315 1.352104,-6.036315 l 2.0020411,-0.06993 0.874419,3.893166 c 0,0 -2.7896491,0.387024 -2.9071991,2.799247 -0.109731,2.250732 2.1097581,3.409218 5.1542271,3.1566 3.519073,-0.292009 2.832358,-10.185033 2.832358,-10.185033 l 1.612502,-0.107579 1.474097,4.73475 c 0,0 -2.932339,-0.112793 -2.742149,2.758965 0.153153,2.312238 2.799566,2.723176 5.374631,2.032919 3.257935,-0.873308 -0.214155,-19.082842 -0.214155,-19.082842 -6.190413,1.50372 -12.07171,3.751721 -18.4261301,4.648551 z"
         id="path97"
         sodipodi:nodetypes="cssscccsscccssccc" />
    </g>
  </g>
</svg>
